%TF.GenerationSoftware,KiCad,Pcbnew,(6.0.11)*%
%TF.CreationDate,2024-04-14T00:11:42+01:00*%
%TF.ProjectId,RJ21_RJ45_PRIMARY_BREAKOUT_BASE,524a3231-5f52-44a3-9435-5f5052494d41,rev?*%
%TF.SameCoordinates,Original*%
%TF.FileFunction,Drillmap*%
%TF.FilePolarity,Positive*%
%FSLAX45Y45*%
G04 Gerber Fmt 4.5, Leading zero omitted, Abs format (unit mm)*
G04 Created by KiCad (PCBNEW (6.0.11)) date 2024-04-14 00:11:42*
%MOMM*%
%LPD*%
G01*
G04 APERTURE LIST*
%ADD10C,0.150000*%
%ADD11C,0.500000*%
%ADD12C,0.200000*%
%ADD13C,0.320000*%
G04 APERTURE END LIST*
D10*
X11850000Y-6860000D02*
G75*
G03*
X11850000Y-6360000I0J250000D01*
G01*
X8850000Y-6360000D02*
G75*
G03*
X8850000Y-6860000I0J-250000D01*
G01*
X8850000Y-6860000D02*
X11850000Y-6860000D01*
X8850000Y-6360000D02*
X11850000Y-6360000D01*
D11*
X16300000Y-5710000D02*
G75*
G03*
X15300000Y-4710000I-1000000J0D01*
G01*
X15300000Y-16710000D02*
G75*
G03*
X16300000Y-15710000I0J1000000D01*
G01*
X4300000Y-15710000D02*
G75*
G03*
X5300000Y-16710000I1000000J0D01*
G01*
X5300000Y-4710000D02*
G75*
G03*
X4300000Y-5710000I0J-1000000D01*
G01*
X5300000Y-4710000D02*
X15300000Y-4710000D01*
X4300000Y-5710000D02*
X4300000Y-15710000D01*
X15300000Y-16710000D02*
X5300000Y-16710000D01*
X16300000Y-5710000D02*
X16300000Y-15710000D01*
D12*
D13*
X5140000Y-5550000D02*
X5460000Y-5870000D01*
X5460000Y-5550000D02*
X5140000Y-5870000D01*
X5140000Y-15550000D02*
X5460000Y-15870000D01*
X5460000Y-15550000D02*
X5140000Y-15870000D01*
X15140000Y-5550000D02*
X15460000Y-5870000D01*
X15460000Y-5550000D02*
X15140000Y-5870000D01*
X15140000Y-15550000D02*
X15460000Y-15870000D01*
X15460000Y-15550000D02*
X15140000Y-15870000D01*
D12*
X4532619Y-17045476D02*
X4532619Y-16845476D01*
X4580238Y-16845476D01*
X4608810Y-16855000D01*
X4627857Y-16874048D01*
X4637381Y-16893095D01*
X4646905Y-16931190D01*
X4646905Y-16959762D01*
X4637381Y-16997857D01*
X4627857Y-17016905D01*
X4608810Y-17035952D01*
X4580238Y-17045476D01*
X4532619Y-17045476D01*
X4732619Y-17045476D02*
X4732619Y-16912143D01*
X4732619Y-16950238D02*
X4742143Y-16931190D01*
X4751667Y-16921667D01*
X4770714Y-16912143D01*
X4789762Y-16912143D01*
X4856429Y-17045476D02*
X4856429Y-16912143D01*
X4856429Y-16845476D02*
X4846905Y-16855000D01*
X4856429Y-16864524D01*
X4865952Y-16855000D01*
X4856429Y-16845476D01*
X4856429Y-16864524D01*
X4980238Y-17045476D02*
X4961190Y-17035952D01*
X4951667Y-17016905D01*
X4951667Y-16845476D01*
X5085000Y-17045476D02*
X5065952Y-17035952D01*
X5056429Y-17016905D01*
X5056429Y-16845476D01*
X5313571Y-17045476D02*
X5313571Y-16845476D01*
X5380238Y-16988333D01*
X5446905Y-16845476D01*
X5446905Y-17045476D01*
X5627857Y-17045476D02*
X5627857Y-16940714D01*
X5618333Y-16921667D01*
X5599286Y-16912143D01*
X5561190Y-16912143D01*
X5542143Y-16921667D01*
X5627857Y-17035952D02*
X5608809Y-17045476D01*
X5561190Y-17045476D01*
X5542143Y-17035952D01*
X5532619Y-17016905D01*
X5532619Y-16997857D01*
X5542143Y-16978810D01*
X5561190Y-16969286D01*
X5608809Y-16969286D01*
X5627857Y-16959762D01*
X5723095Y-16912143D02*
X5723095Y-17112143D01*
X5723095Y-16921667D02*
X5742143Y-16912143D01*
X5780238Y-16912143D01*
X5799286Y-16921667D01*
X5808809Y-16931190D01*
X5818333Y-16950238D01*
X5818333Y-17007381D01*
X5808809Y-17026429D01*
X5799286Y-17035952D01*
X5780238Y-17045476D01*
X5742143Y-17045476D01*
X5723095Y-17035952D01*
X5904048Y-17026429D02*
X5913571Y-17035952D01*
X5904048Y-17045476D01*
X5894524Y-17035952D01*
X5904048Y-17026429D01*
X5904048Y-17045476D01*
X5904048Y-16921667D02*
X5913571Y-16931190D01*
X5904048Y-16940714D01*
X5894524Y-16931190D01*
X5904048Y-16921667D01*
X5904048Y-16940714D01*
X4075000Y-17275000D02*
X4275000Y-17475000D01*
X4275000Y-17275000D02*
X4075000Y-17475000D01*
X4513571Y-17265476D02*
X4637381Y-17265476D01*
X4570714Y-17341667D01*
X4599286Y-17341667D01*
X4618333Y-17351190D01*
X4627857Y-17360714D01*
X4637381Y-17379762D01*
X4637381Y-17427381D01*
X4627857Y-17446429D01*
X4618333Y-17455952D01*
X4599286Y-17465476D01*
X4542143Y-17465476D01*
X4523095Y-17455952D01*
X4513571Y-17446429D01*
X4723095Y-17446429D02*
X4732619Y-17455952D01*
X4723095Y-17465476D01*
X4713571Y-17455952D01*
X4723095Y-17446429D01*
X4723095Y-17465476D01*
X4808810Y-17284524D02*
X4818333Y-17275000D01*
X4837381Y-17265476D01*
X4885000Y-17265476D01*
X4904048Y-17275000D01*
X4913571Y-17284524D01*
X4923095Y-17303571D01*
X4923095Y-17322619D01*
X4913571Y-17351190D01*
X4799286Y-17465476D01*
X4923095Y-17465476D01*
X5046905Y-17265476D02*
X5065952Y-17265476D01*
X5085000Y-17275000D01*
X5094524Y-17284524D01*
X5104048Y-17303571D01*
X5113571Y-17341667D01*
X5113571Y-17389286D01*
X5104048Y-17427381D01*
X5094524Y-17446429D01*
X5085000Y-17455952D01*
X5065952Y-17465476D01*
X5046905Y-17465476D01*
X5027857Y-17455952D01*
X5018333Y-17446429D01*
X5008810Y-17427381D01*
X4999286Y-17389286D01*
X4999286Y-17341667D01*
X5008810Y-17303571D01*
X5018333Y-17284524D01*
X5027857Y-17275000D01*
X5046905Y-17265476D01*
X5237381Y-17265476D02*
X5256429Y-17265476D01*
X5275476Y-17275000D01*
X5285000Y-17284524D01*
X5294524Y-17303571D01*
X5304048Y-17341667D01*
X5304048Y-17389286D01*
X5294524Y-17427381D01*
X5285000Y-17446429D01*
X5275476Y-17455952D01*
X5256429Y-17465476D01*
X5237381Y-17465476D01*
X5218333Y-17455952D01*
X5208810Y-17446429D01*
X5199286Y-17427381D01*
X5189762Y-17389286D01*
X5189762Y-17341667D01*
X5199286Y-17303571D01*
X5208810Y-17284524D01*
X5218333Y-17275000D01*
X5237381Y-17265476D01*
X5389762Y-17465476D02*
X5389762Y-17332143D01*
X5389762Y-17351190D02*
X5399286Y-17341667D01*
X5418333Y-17332143D01*
X5446905Y-17332143D01*
X5465952Y-17341667D01*
X5475476Y-17360714D01*
X5475476Y-17465476D01*
X5475476Y-17360714D02*
X5485000Y-17341667D01*
X5504048Y-17332143D01*
X5532619Y-17332143D01*
X5551667Y-17341667D01*
X5561190Y-17360714D01*
X5561190Y-17465476D01*
X5656428Y-17465476D02*
X5656428Y-17332143D01*
X5656428Y-17351190D02*
X5665952Y-17341667D01*
X5685000Y-17332143D01*
X5713571Y-17332143D01*
X5732619Y-17341667D01*
X5742143Y-17360714D01*
X5742143Y-17465476D01*
X5742143Y-17360714D02*
X5751667Y-17341667D01*
X5770714Y-17332143D01*
X5799286Y-17332143D01*
X5818333Y-17341667D01*
X5827857Y-17360714D01*
X5827857Y-17465476D01*
X6218333Y-17255952D02*
X6046905Y-17513095D01*
X6475476Y-17265476D02*
X6494524Y-17265476D01*
X6513571Y-17275000D01*
X6523095Y-17284524D01*
X6532619Y-17303571D01*
X6542143Y-17341667D01*
X6542143Y-17389286D01*
X6532619Y-17427381D01*
X6523095Y-17446429D01*
X6513571Y-17455952D01*
X6494524Y-17465476D01*
X6475476Y-17465476D01*
X6456428Y-17455952D01*
X6446905Y-17446429D01*
X6437381Y-17427381D01*
X6427857Y-17389286D01*
X6427857Y-17341667D01*
X6437381Y-17303571D01*
X6446905Y-17284524D01*
X6456428Y-17275000D01*
X6475476Y-17265476D01*
X6627857Y-17446429D02*
X6637381Y-17455952D01*
X6627857Y-17465476D01*
X6618333Y-17455952D01*
X6627857Y-17446429D01*
X6627857Y-17465476D01*
X6827857Y-17465476D02*
X6713571Y-17465476D01*
X6770714Y-17465476D02*
X6770714Y-17265476D01*
X6751667Y-17294048D01*
X6732619Y-17313095D01*
X6713571Y-17322619D01*
X6904048Y-17284524D02*
X6913571Y-17275000D01*
X6932619Y-17265476D01*
X6980238Y-17265476D01*
X6999286Y-17275000D01*
X7008809Y-17284524D01*
X7018333Y-17303571D01*
X7018333Y-17322619D01*
X7008809Y-17351190D01*
X6894524Y-17465476D01*
X7018333Y-17465476D01*
X7189762Y-17265476D02*
X7151667Y-17265476D01*
X7132619Y-17275000D01*
X7123095Y-17284524D01*
X7104048Y-17313095D01*
X7094524Y-17351190D01*
X7094524Y-17427381D01*
X7104048Y-17446429D01*
X7113571Y-17455952D01*
X7132619Y-17465476D01*
X7170714Y-17465476D01*
X7189762Y-17455952D01*
X7199286Y-17446429D01*
X7208809Y-17427381D01*
X7208809Y-17379762D01*
X7199286Y-17360714D01*
X7189762Y-17351190D01*
X7170714Y-17341667D01*
X7132619Y-17341667D01*
X7113571Y-17351190D01*
X7104048Y-17360714D01*
X7094524Y-17379762D01*
X7332619Y-17265476D02*
X7351667Y-17265476D01*
X7370714Y-17275000D01*
X7380238Y-17284524D01*
X7389762Y-17303571D01*
X7399286Y-17341667D01*
X7399286Y-17389286D01*
X7389762Y-17427381D01*
X7380238Y-17446429D01*
X7370714Y-17455952D01*
X7351667Y-17465476D01*
X7332619Y-17465476D01*
X7313571Y-17455952D01*
X7304048Y-17446429D01*
X7294524Y-17427381D01*
X7285000Y-17389286D01*
X7285000Y-17341667D01*
X7294524Y-17303571D01*
X7304048Y-17284524D01*
X7313571Y-17275000D01*
X7332619Y-17265476D01*
X7475476Y-17265476D02*
X7475476Y-17303571D01*
X7551667Y-17265476D02*
X7551667Y-17303571D01*
X7846905Y-17541667D02*
X7837381Y-17532143D01*
X7818333Y-17503571D01*
X7808809Y-17484524D01*
X7799286Y-17455952D01*
X7789762Y-17408333D01*
X7789762Y-17370238D01*
X7799286Y-17322619D01*
X7808809Y-17294048D01*
X7818333Y-17275000D01*
X7837381Y-17246429D01*
X7846905Y-17236905D01*
X8008809Y-17332143D02*
X8008809Y-17465476D01*
X7961190Y-17255952D02*
X7913571Y-17398810D01*
X8037381Y-17398810D01*
X8265952Y-17465476D02*
X8265952Y-17265476D01*
X8351667Y-17465476D02*
X8351667Y-17360714D01*
X8342143Y-17341667D01*
X8323095Y-17332143D01*
X8294524Y-17332143D01*
X8275476Y-17341667D01*
X8265952Y-17351190D01*
X8475476Y-17465476D02*
X8456429Y-17455952D01*
X8446905Y-17446429D01*
X8437381Y-17427381D01*
X8437381Y-17370238D01*
X8446905Y-17351190D01*
X8456429Y-17341667D01*
X8475476Y-17332143D01*
X8504048Y-17332143D01*
X8523095Y-17341667D01*
X8532619Y-17351190D01*
X8542143Y-17370238D01*
X8542143Y-17427381D01*
X8532619Y-17446429D01*
X8523095Y-17455952D01*
X8504048Y-17465476D01*
X8475476Y-17465476D01*
X8656429Y-17465476D02*
X8637381Y-17455952D01*
X8627857Y-17436905D01*
X8627857Y-17265476D01*
X8808810Y-17455952D02*
X8789762Y-17465476D01*
X8751667Y-17465476D01*
X8732619Y-17455952D01*
X8723095Y-17436905D01*
X8723095Y-17360714D01*
X8732619Y-17341667D01*
X8751667Y-17332143D01*
X8789762Y-17332143D01*
X8808810Y-17341667D01*
X8818333Y-17360714D01*
X8818333Y-17379762D01*
X8723095Y-17398810D01*
X8894524Y-17455952D02*
X8913571Y-17465476D01*
X8951667Y-17465476D01*
X8970714Y-17455952D01*
X8980238Y-17436905D01*
X8980238Y-17427381D01*
X8970714Y-17408333D01*
X8951667Y-17398810D01*
X8923095Y-17398810D01*
X8904048Y-17389286D01*
X8894524Y-17370238D01*
X8894524Y-17360714D01*
X8904048Y-17341667D01*
X8923095Y-17332143D01*
X8951667Y-17332143D01*
X8970714Y-17341667D01*
X9046905Y-17541667D02*
X9056429Y-17532143D01*
X9075476Y-17503571D01*
X9085000Y-17484524D01*
X9094524Y-17455952D01*
X9104048Y-17408333D01*
X9104048Y-17370238D01*
X9094524Y-17322619D01*
X9085000Y-17294048D01*
X9075476Y-17275000D01*
X9056429Y-17246429D01*
X9046905Y-17236905D01*
X9408810Y-17541667D02*
X9399286Y-17532143D01*
X9380238Y-17503571D01*
X9370714Y-17484524D01*
X9361190Y-17455952D01*
X9351667Y-17408333D01*
X9351667Y-17370238D01*
X9361190Y-17322619D01*
X9370714Y-17294048D01*
X9380238Y-17275000D01*
X9399286Y-17246429D01*
X9408810Y-17236905D01*
X9485000Y-17332143D02*
X9485000Y-17465476D01*
X9485000Y-17351190D02*
X9494524Y-17341667D01*
X9513571Y-17332143D01*
X9542143Y-17332143D01*
X9561190Y-17341667D01*
X9570714Y-17360714D01*
X9570714Y-17465476D01*
X9694524Y-17465476D02*
X9675476Y-17455952D01*
X9665952Y-17446429D01*
X9656429Y-17427381D01*
X9656429Y-17370238D01*
X9665952Y-17351190D01*
X9675476Y-17341667D01*
X9694524Y-17332143D01*
X9723095Y-17332143D01*
X9742143Y-17341667D01*
X9751667Y-17351190D01*
X9761190Y-17370238D01*
X9761190Y-17427381D01*
X9751667Y-17446429D01*
X9742143Y-17455952D01*
X9723095Y-17465476D01*
X9694524Y-17465476D01*
X9818333Y-17332143D02*
X9894524Y-17332143D01*
X9846905Y-17265476D02*
X9846905Y-17436905D01*
X9856429Y-17455952D01*
X9875476Y-17465476D01*
X9894524Y-17465476D01*
X10113571Y-17332143D02*
X10113571Y-17532143D01*
X10113571Y-17341667D02*
X10132619Y-17332143D01*
X10170714Y-17332143D01*
X10189762Y-17341667D01*
X10199286Y-17351190D01*
X10208810Y-17370238D01*
X10208810Y-17427381D01*
X10199286Y-17446429D01*
X10189762Y-17455952D01*
X10170714Y-17465476D01*
X10132619Y-17465476D01*
X10113571Y-17455952D01*
X10323095Y-17465476D02*
X10304048Y-17455952D01*
X10294524Y-17436905D01*
X10294524Y-17265476D01*
X10485000Y-17465476D02*
X10485000Y-17360714D01*
X10475476Y-17341667D01*
X10456429Y-17332143D01*
X10418333Y-17332143D01*
X10399286Y-17341667D01*
X10485000Y-17455952D02*
X10465952Y-17465476D01*
X10418333Y-17465476D01*
X10399286Y-17455952D01*
X10389762Y-17436905D01*
X10389762Y-17417857D01*
X10399286Y-17398810D01*
X10418333Y-17389286D01*
X10465952Y-17389286D01*
X10485000Y-17379762D01*
X10551667Y-17332143D02*
X10627857Y-17332143D01*
X10580238Y-17265476D02*
X10580238Y-17436905D01*
X10589762Y-17455952D01*
X10608810Y-17465476D01*
X10627857Y-17465476D01*
X10770714Y-17455952D02*
X10751667Y-17465476D01*
X10713571Y-17465476D01*
X10694524Y-17455952D01*
X10685000Y-17436905D01*
X10685000Y-17360714D01*
X10694524Y-17341667D01*
X10713571Y-17332143D01*
X10751667Y-17332143D01*
X10770714Y-17341667D01*
X10780238Y-17360714D01*
X10780238Y-17379762D01*
X10685000Y-17398810D01*
X10951667Y-17465476D02*
X10951667Y-17265476D01*
X10951667Y-17455952D02*
X10932619Y-17465476D01*
X10894524Y-17465476D01*
X10875476Y-17455952D01*
X10865952Y-17446429D01*
X10856429Y-17427381D01*
X10856429Y-17370238D01*
X10865952Y-17351190D01*
X10875476Y-17341667D01*
X10894524Y-17332143D01*
X10932619Y-17332143D01*
X10951667Y-17341667D01*
X11027857Y-17541667D02*
X11037381Y-17532143D01*
X11056429Y-17503571D01*
X11065952Y-17484524D01*
X11075476Y-17455952D01*
X11085000Y-17408333D01*
X11085000Y-17370238D01*
X11075476Y-17322619D01*
X11065952Y-17294048D01*
X11056429Y-17275000D01*
X11037381Y-17246429D01*
X11027857Y-17236905D01*
M02*
