%FSLAX45Y45*%
G04 Gerber Fmt 4.5, Leading zero omitted, Abs format (unit mm)*
G04 Created by KiCad (PCBNEW (5.1.10-1-10_14)) date 2022-03-30 11:35:28*
%MOMM*%
%LPD*%
G01*
G04 APERTURE LIST*
%TA.AperFunction,Profile*%
%ADD10C,0.150000*%
%TD*%
%TA.AperFunction,Profile*%
%ADD11C,0.500000*%
%TD*%
%ADD12C,0.200000*%
%ADD13C,0.300000*%
G04 APERTURE END LIST*
D10*
X11850000Y-6360000D02*
G75*
G02*
X11850000Y-6860000I0J-250000D01*
G01*
X8850000Y-6860000D02*
G75*
G02*
X8850000Y-6360000I0J250000D01*
G01*
X8850000Y-6860000D02*
X11850000Y-6860000D01*
X8850000Y-6360000D02*
X11850000Y-6360000D01*
D11*
X15300000Y-4710000D02*
G75*
G02*
X16300000Y-5710000I0J-1000000D01*
G01*
X16300000Y-15710000D02*
G75*
G02*
X15300000Y-16710000I-1000000J0D01*
G01*
X5300000Y-16710000D02*
G75*
G02*
X4300000Y-15710000I0J1000000D01*
G01*
X4300000Y-5710000D02*
G75*
G02*
X5300000Y-4710000I1000000J0D01*
G01*
X5300000Y-4710000D02*
X15300000Y-4710000D01*
X4300000Y-5710000D02*
X4300000Y-15710000D01*
X15300000Y-16710000D02*
X5300000Y-16710000D01*
X16300000Y-5710000D02*
X16300000Y-15710000D01*
D12*
D13*
X4561428Y-17200714D02*
X4561428Y-16900714D01*
X4632857Y-16900714D01*
X4675714Y-16915000D01*
X4704286Y-16943572D01*
X4718571Y-16972143D01*
X4732857Y-17029286D01*
X4732857Y-17072143D01*
X4718571Y-17129286D01*
X4704286Y-17157857D01*
X4675714Y-17186429D01*
X4632857Y-17200714D01*
X4561428Y-17200714D01*
X4861428Y-17200714D02*
X4861428Y-17000714D01*
X4861428Y-17057857D02*
X4875714Y-17029286D01*
X4890000Y-17015000D01*
X4918571Y-17000714D01*
X4947143Y-17000714D01*
X5047143Y-17200714D02*
X5047143Y-17000714D01*
X5047143Y-16900714D02*
X5032857Y-16915000D01*
X5047143Y-16929286D01*
X5061428Y-16915000D01*
X5047143Y-16900714D01*
X5047143Y-16929286D01*
X5232857Y-17200714D02*
X5204286Y-17186429D01*
X5190000Y-17157857D01*
X5190000Y-16900714D01*
X5390000Y-17200714D02*
X5361428Y-17186429D01*
X5347143Y-17157857D01*
X5347143Y-16900714D01*
X5732857Y-17200714D02*
X5732857Y-16900714D01*
X5832857Y-17115000D01*
X5932857Y-16900714D01*
X5932857Y-17200714D01*
X6204286Y-17200714D02*
X6204286Y-17043572D01*
X6190000Y-17015000D01*
X6161428Y-17000714D01*
X6104286Y-17000714D01*
X6075714Y-17015000D01*
X6204286Y-17186429D02*
X6175714Y-17200714D01*
X6104286Y-17200714D01*
X6075714Y-17186429D01*
X6061428Y-17157857D01*
X6061428Y-17129286D01*
X6075714Y-17100714D01*
X6104286Y-17086429D01*
X6175714Y-17086429D01*
X6204286Y-17072143D01*
X6347143Y-17000714D02*
X6347143Y-17300714D01*
X6347143Y-17015000D02*
X6375714Y-17000714D01*
X6432857Y-17000714D01*
X6461428Y-17015000D01*
X6475714Y-17029286D01*
X6490000Y-17057857D01*
X6490000Y-17143572D01*
X6475714Y-17172143D01*
X6461428Y-17186429D01*
X6432857Y-17200714D01*
X6375714Y-17200714D01*
X6347143Y-17186429D01*
X6618571Y-17172143D02*
X6632857Y-17186429D01*
X6618571Y-17200714D01*
X6604286Y-17186429D01*
X6618571Y-17172143D01*
X6618571Y-17200714D01*
X6618571Y-17015000D02*
X6632857Y-17029286D01*
X6618571Y-17043572D01*
X6604286Y-17029286D01*
X6618571Y-17015000D01*
X6618571Y-17043572D01*
M02*
