%FSLAX45Y45*%
G04 Gerber Fmt 4.5, Leading zero omitted, Abs format (unit mm)*
G04 Created by KiCad (PCBNEW (5.1.10-1-10_14)) date 2022-03-30 11:35:28*
%MOMM*%
%LPD*%
G01*
G04 APERTURE LIST*
%TA.AperFunction,Profile*%
%ADD10C,0.150000*%
%TD*%
%TA.AperFunction,Profile*%
%ADD11C,0.500000*%
%TD*%
%ADD12C,0.200000*%
%ADD13C,0.300000*%
G04 APERTURE END LIST*
D10*
X11850000Y-6360000D02*
G75*
G02*
X11850000Y-6860000I0J-250000D01*
G01*
X8850000Y-6860000D02*
G75*
G02*
X8850000Y-6360000I0J250000D01*
G01*
X8850000Y-6860000D02*
X11850000Y-6860000D01*
X8850000Y-6360000D02*
X11850000Y-6360000D01*
D11*
X15300000Y-4710000D02*
G75*
G02*
X16300000Y-5710000I0J-1000000D01*
G01*
X16300000Y-15710000D02*
G75*
G02*
X15300000Y-16710000I-1000000J0D01*
G01*
X5300000Y-16710000D02*
G75*
G02*
X4300000Y-15710000I0J1000000D01*
G01*
X4300000Y-5710000D02*
G75*
G02*
X5300000Y-4710000I1000000J0D01*
G01*
X5300000Y-4710000D02*
X15300000Y-4710000D01*
X4300000Y-5710000D02*
X4300000Y-15710000D01*
X15300000Y-16710000D02*
X5300000Y-16710000D01*
X16300000Y-5710000D02*
X16300000Y-15710000D01*
D12*
X5140000Y-5550000D02*
X5460000Y-5870000D01*
X5460000Y-5550000D02*
X5140000Y-5870000D01*
X5140000Y-15550000D02*
X5460000Y-15870000D01*
X5460000Y-15550000D02*
X5140000Y-15870000D01*
X15140000Y-5550000D02*
X15460000Y-5870000D01*
X15460000Y-5550000D02*
X15140000Y-5870000D01*
X15140000Y-15550000D02*
X15460000Y-15870000D01*
X15460000Y-15550000D02*
X15140000Y-15870000D01*
D13*
X4561428Y-17200714D02*
X4561428Y-16900714D01*
X4632857Y-16900714D01*
X4675714Y-16915000D01*
X4704286Y-16943572D01*
X4718571Y-16972143D01*
X4732857Y-17029286D01*
X4732857Y-17072143D01*
X4718571Y-17129286D01*
X4704286Y-17157857D01*
X4675714Y-17186429D01*
X4632857Y-17200714D01*
X4561428Y-17200714D01*
X4861428Y-17200714D02*
X4861428Y-17000714D01*
X4861428Y-17057857D02*
X4875714Y-17029286D01*
X4890000Y-17015000D01*
X4918571Y-17000714D01*
X4947143Y-17000714D01*
X5047143Y-17200714D02*
X5047143Y-17000714D01*
X5047143Y-16900714D02*
X5032857Y-16915000D01*
X5047143Y-16929286D01*
X5061428Y-16915000D01*
X5047143Y-16900714D01*
X5047143Y-16929286D01*
X5232857Y-17200714D02*
X5204286Y-17186429D01*
X5190000Y-17157857D01*
X5190000Y-16900714D01*
X5390000Y-17200714D02*
X5361428Y-17186429D01*
X5347143Y-17157857D01*
X5347143Y-16900714D01*
X5732857Y-17200714D02*
X5732857Y-16900714D01*
X5832857Y-17115000D01*
X5932857Y-16900714D01*
X5932857Y-17200714D01*
X6204286Y-17200714D02*
X6204286Y-17043572D01*
X6190000Y-17015000D01*
X6161428Y-17000714D01*
X6104286Y-17000714D01*
X6075714Y-17015000D01*
X6204286Y-17186429D02*
X6175714Y-17200714D01*
X6104286Y-17200714D01*
X6075714Y-17186429D01*
X6061428Y-17157857D01*
X6061428Y-17129286D01*
X6075714Y-17100714D01*
X6104286Y-17086429D01*
X6175714Y-17086429D01*
X6204286Y-17072143D01*
X6347143Y-17000714D02*
X6347143Y-17300714D01*
X6347143Y-17015000D02*
X6375714Y-17000714D01*
X6432857Y-17000714D01*
X6461428Y-17015000D01*
X6475714Y-17029286D01*
X6490000Y-17057857D01*
X6490000Y-17143572D01*
X6475714Y-17172143D01*
X6461428Y-17186429D01*
X6432857Y-17200714D01*
X6375714Y-17200714D01*
X6347143Y-17186429D01*
X6618571Y-17172143D02*
X6632857Y-17186429D01*
X6618571Y-17200714D01*
X6604286Y-17186429D01*
X6618571Y-17172143D01*
X6618571Y-17200714D01*
X6618571Y-17015000D02*
X6632857Y-17029286D01*
X6618571Y-17043572D01*
X6604286Y-17029286D01*
X6618571Y-17015000D01*
X6618571Y-17043572D01*
X3955000Y-17535000D02*
X4275000Y-17855000D01*
X4275000Y-17535000D02*
X3955000Y-17855000D01*
X4532857Y-17530714D02*
X4718571Y-17530714D01*
X4618571Y-17645000D01*
X4661428Y-17645000D01*
X4690000Y-17659286D01*
X4704286Y-17673572D01*
X4718571Y-17702143D01*
X4718571Y-17773572D01*
X4704286Y-17802143D01*
X4690000Y-17816429D01*
X4661428Y-17830714D01*
X4575714Y-17830714D01*
X4547143Y-17816429D01*
X4532857Y-17802143D01*
X4847143Y-17802143D02*
X4861428Y-17816429D01*
X4847143Y-17830714D01*
X4832857Y-17816429D01*
X4847143Y-17802143D01*
X4847143Y-17830714D01*
X4975714Y-17559286D02*
X4990000Y-17545000D01*
X5018571Y-17530714D01*
X5090000Y-17530714D01*
X5118571Y-17545000D01*
X5132857Y-17559286D01*
X5147143Y-17587857D01*
X5147143Y-17616429D01*
X5132857Y-17659286D01*
X4961428Y-17830714D01*
X5147143Y-17830714D01*
X5332857Y-17530714D02*
X5361428Y-17530714D01*
X5390000Y-17545000D01*
X5404286Y-17559286D01*
X5418571Y-17587857D01*
X5432857Y-17645000D01*
X5432857Y-17716429D01*
X5418571Y-17773572D01*
X5404286Y-17802143D01*
X5390000Y-17816429D01*
X5361428Y-17830714D01*
X5332857Y-17830714D01*
X5304286Y-17816429D01*
X5290000Y-17802143D01*
X5275714Y-17773572D01*
X5261428Y-17716429D01*
X5261428Y-17645000D01*
X5275714Y-17587857D01*
X5290000Y-17559286D01*
X5304286Y-17545000D01*
X5332857Y-17530714D01*
X5618571Y-17530714D02*
X5647143Y-17530714D01*
X5675714Y-17545000D01*
X5690000Y-17559286D01*
X5704286Y-17587857D01*
X5718571Y-17645000D01*
X5718571Y-17716429D01*
X5704286Y-17773572D01*
X5690000Y-17802143D01*
X5675714Y-17816429D01*
X5647143Y-17830714D01*
X5618571Y-17830714D01*
X5590000Y-17816429D01*
X5575714Y-17802143D01*
X5561428Y-17773572D01*
X5547143Y-17716429D01*
X5547143Y-17645000D01*
X5561428Y-17587857D01*
X5575714Y-17559286D01*
X5590000Y-17545000D01*
X5618571Y-17530714D01*
X5847143Y-17830714D02*
X5847143Y-17630714D01*
X5847143Y-17659286D02*
X5861428Y-17645000D01*
X5890000Y-17630714D01*
X5932857Y-17630714D01*
X5961428Y-17645000D01*
X5975714Y-17673572D01*
X5975714Y-17830714D01*
X5975714Y-17673572D02*
X5990000Y-17645000D01*
X6018571Y-17630714D01*
X6061428Y-17630714D01*
X6090000Y-17645000D01*
X6104286Y-17673572D01*
X6104286Y-17830714D01*
X6247143Y-17830714D02*
X6247143Y-17630714D01*
X6247143Y-17659286D02*
X6261428Y-17645000D01*
X6290000Y-17630714D01*
X6332857Y-17630714D01*
X6361428Y-17645000D01*
X6375714Y-17673572D01*
X6375714Y-17830714D01*
X6375714Y-17673572D02*
X6390000Y-17645000D01*
X6418571Y-17630714D01*
X6461428Y-17630714D01*
X6490000Y-17645000D01*
X6504286Y-17673572D01*
X6504286Y-17830714D01*
X7090000Y-17516429D02*
X6832857Y-17902143D01*
X7475714Y-17530714D02*
X7504286Y-17530714D01*
X7532857Y-17545000D01*
X7547143Y-17559286D01*
X7561428Y-17587857D01*
X7575714Y-17645000D01*
X7575714Y-17716429D01*
X7561428Y-17773572D01*
X7547143Y-17802143D01*
X7532857Y-17816429D01*
X7504286Y-17830714D01*
X7475714Y-17830714D01*
X7447143Y-17816429D01*
X7432857Y-17802143D01*
X7418571Y-17773572D01*
X7404286Y-17716429D01*
X7404286Y-17645000D01*
X7418571Y-17587857D01*
X7432857Y-17559286D01*
X7447143Y-17545000D01*
X7475714Y-17530714D01*
X7704286Y-17802143D02*
X7718571Y-17816429D01*
X7704286Y-17830714D01*
X7690000Y-17816429D01*
X7704286Y-17802143D01*
X7704286Y-17830714D01*
X8004286Y-17830714D02*
X7832857Y-17830714D01*
X7918571Y-17830714D02*
X7918571Y-17530714D01*
X7890000Y-17573572D01*
X7861428Y-17602143D01*
X7832857Y-17616429D01*
X8118571Y-17559286D02*
X8132857Y-17545000D01*
X8161428Y-17530714D01*
X8232857Y-17530714D01*
X8261428Y-17545000D01*
X8275714Y-17559286D01*
X8290000Y-17587857D01*
X8290000Y-17616429D01*
X8275714Y-17659286D01*
X8104286Y-17830714D01*
X8290000Y-17830714D01*
X8547143Y-17530714D02*
X8490000Y-17530714D01*
X8461428Y-17545000D01*
X8447143Y-17559286D01*
X8418571Y-17602143D01*
X8404286Y-17659286D01*
X8404286Y-17773572D01*
X8418571Y-17802143D01*
X8432857Y-17816429D01*
X8461428Y-17830714D01*
X8518571Y-17830714D01*
X8547143Y-17816429D01*
X8561428Y-17802143D01*
X8575714Y-17773572D01*
X8575714Y-17702143D01*
X8561428Y-17673572D01*
X8547143Y-17659286D01*
X8518571Y-17645000D01*
X8461428Y-17645000D01*
X8432857Y-17659286D01*
X8418571Y-17673572D01*
X8404286Y-17702143D01*
X8761428Y-17530714D02*
X8790000Y-17530714D01*
X8818571Y-17545000D01*
X8832857Y-17559286D01*
X8847143Y-17587857D01*
X8861428Y-17645000D01*
X8861428Y-17716429D01*
X8847143Y-17773572D01*
X8832857Y-17802143D01*
X8818571Y-17816429D01*
X8790000Y-17830714D01*
X8761428Y-17830714D01*
X8732857Y-17816429D01*
X8718571Y-17802143D01*
X8704286Y-17773572D01*
X8690000Y-17716429D01*
X8690000Y-17645000D01*
X8704286Y-17587857D01*
X8718571Y-17559286D01*
X8732857Y-17545000D01*
X8761428Y-17530714D01*
X8975714Y-17530714D02*
X8975714Y-17587857D01*
X9090000Y-17530714D02*
X9090000Y-17587857D01*
X9532857Y-17945000D02*
X9518571Y-17930714D01*
X9490000Y-17887857D01*
X9475714Y-17859286D01*
X9461428Y-17816429D01*
X9447143Y-17745000D01*
X9447143Y-17687857D01*
X9461428Y-17616429D01*
X9475714Y-17573572D01*
X9490000Y-17545000D01*
X9518571Y-17502143D01*
X9532857Y-17487857D01*
X9775714Y-17630714D02*
X9775714Y-17830714D01*
X9704286Y-17516429D02*
X9632857Y-17730714D01*
X9818571Y-17730714D01*
X10161428Y-17830714D02*
X10161428Y-17530714D01*
X10290000Y-17830714D02*
X10290000Y-17673572D01*
X10275714Y-17645000D01*
X10247143Y-17630714D01*
X10204286Y-17630714D01*
X10175714Y-17645000D01*
X10161428Y-17659286D01*
X10475714Y-17830714D02*
X10447143Y-17816429D01*
X10432857Y-17802143D01*
X10418571Y-17773572D01*
X10418571Y-17687857D01*
X10432857Y-17659286D01*
X10447143Y-17645000D01*
X10475714Y-17630714D01*
X10518571Y-17630714D01*
X10547143Y-17645000D01*
X10561428Y-17659286D01*
X10575714Y-17687857D01*
X10575714Y-17773572D01*
X10561428Y-17802143D01*
X10547143Y-17816429D01*
X10518571Y-17830714D01*
X10475714Y-17830714D01*
X10747143Y-17830714D02*
X10718571Y-17816429D01*
X10704286Y-17787857D01*
X10704286Y-17530714D01*
X10975714Y-17816429D02*
X10947143Y-17830714D01*
X10890000Y-17830714D01*
X10861428Y-17816429D01*
X10847143Y-17787857D01*
X10847143Y-17673572D01*
X10861428Y-17645000D01*
X10890000Y-17630714D01*
X10947143Y-17630714D01*
X10975714Y-17645000D01*
X10990000Y-17673572D01*
X10990000Y-17702143D01*
X10847143Y-17730714D01*
X11104286Y-17816429D02*
X11132857Y-17830714D01*
X11190000Y-17830714D01*
X11218571Y-17816429D01*
X11232857Y-17787857D01*
X11232857Y-17773572D01*
X11218571Y-17745000D01*
X11190000Y-17730714D01*
X11147143Y-17730714D01*
X11118571Y-17716429D01*
X11104286Y-17687857D01*
X11104286Y-17673572D01*
X11118571Y-17645000D01*
X11147143Y-17630714D01*
X11190000Y-17630714D01*
X11218571Y-17645000D01*
X11332857Y-17945000D02*
X11347143Y-17930714D01*
X11375714Y-17887857D01*
X11390000Y-17859286D01*
X11404286Y-17816429D01*
X11418571Y-17745000D01*
X11418571Y-17687857D01*
X11404286Y-17616429D01*
X11390000Y-17573572D01*
X11375714Y-17545000D01*
X11347143Y-17502143D01*
X11332857Y-17487857D01*
X11875714Y-17945000D02*
X11861428Y-17930714D01*
X11832857Y-17887857D01*
X11818571Y-17859286D01*
X11804286Y-17816429D01*
X11790000Y-17745000D01*
X11790000Y-17687857D01*
X11804286Y-17616429D01*
X11818571Y-17573572D01*
X11832857Y-17545000D01*
X11861428Y-17502143D01*
X11875714Y-17487857D01*
X11990000Y-17630714D02*
X11990000Y-17830714D01*
X11990000Y-17659286D02*
X12004286Y-17645000D01*
X12032857Y-17630714D01*
X12075714Y-17630714D01*
X12104286Y-17645000D01*
X12118571Y-17673572D01*
X12118571Y-17830714D01*
X12304286Y-17830714D02*
X12275714Y-17816429D01*
X12261428Y-17802143D01*
X12247143Y-17773572D01*
X12247143Y-17687857D01*
X12261428Y-17659286D01*
X12275714Y-17645000D01*
X12304286Y-17630714D01*
X12347143Y-17630714D01*
X12375714Y-17645000D01*
X12390000Y-17659286D01*
X12404286Y-17687857D01*
X12404286Y-17773572D01*
X12390000Y-17802143D01*
X12375714Y-17816429D01*
X12347143Y-17830714D01*
X12304286Y-17830714D01*
X12490000Y-17630714D02*
X12604286Y-17630714D01*
X12532857Y-17530714D02*
X12532857Y-17787857D01*
X12547143Y-17816429D01*
X12575714Y-17830714D01*
X12604286Y-17830714D01*
X12932857Y-17630714D02*
X12932857Y-17930714D01*
X12932857Y-17645000D02*
X12961428Y-17630714D01*
X13018571Y-17630714D01*
X13047143Y-17645000D01*
X13061428Y-17659286D01*
X13075714Y-17687857D01*
X13075714Y-17773572D01*
X13061428Y-17802143D01*
X13047143Y-17816429D01*
X13018571Y-17830714D01*
X12961428Y-17830714D01*
X12932857Y-17816429D01*
X13247143Y-17830714D02*
X13218571Y-17816429D01*
X13204286Y-17787857D01*
X13204286Y-17530714D01*
X13490000Y-17830714D02*
X13490000Y-17673572D01*
X13475714Y-17645000D01*
X13447143Y-17630714D01*
X13390000Y-17630714D01*
X13361428Y-17645000D01*
X13490000Y-17816429D02*
X13461428Y-17830714D01*
X13390000Y-17830714D01*
X13361428Y-17816429D01*
X13347143Y-17787857D01*
X13347143Y-17759286D01*
X13361428Y-17730714D01*
X13390000Y-17716429D01*
X13461428Y-17716429D01*
X13490000Y-17702143D01*
X13590000Y-17630714D02*
X13704286Y-17630714D01*
X13632857Y-17530714D02*
X13632857Y-17787857D01*
X13647143Y-17816429D01*
X13675714Y-17830714D01*
X13704286Y-17830714D01*
X13918571Y-17816429D02*
X13890000Y-17830714D01*
X13832857Y-17830714D01*
X13804286Y-17816429D01*
X13790000Y-17787857D01*
X13790000Y-17673572D01*
X13804286Y-17645000D01*
X13832857Y-17630714D01*
X13890000Y-17630714D01*
X13918571Y-17645000D01*
X13932857Y-17673572D01*
X13932857Y-17702143D01*
X13790000Y-17730714D01*
X14190000Y-17830714D02*
X14190000Y-17530714D01*
X14190000Y-17816429D02*
X14161428Y-17830714D01*
X14104286Y-17830714D01*
X14075714Y-17816429D01*
X14061428Y-17802143D01*
X14047143Y-17773572D01*
X14047143Y-17687857D01*
X14061428Y-17659286D01*
X14075714Y-17645000D01*
X14104286Y-17630714D01*
X14161428Y-17630714D01*
X14190000Y-17645000D01*
X14304286Y-17945000D02*
X14318571Y-17930714D01*
X14347143Y-17887857D01*
X14361428Y-17859286D01*
X14375714Y-17816429D01*
X14390000Y-17745000D01*
X14390000Y-17687857D01*
X14375714Y-17616429D01*
X14361428Y-17573572D01*
X14347143Y-17545000D01*
X14318571Y-17502143D01*
X14304286Y-17487857D01*
M02*
