G04 #@! TF.GenerationSoftware,KiCad,Pcbnew,(6.0.11)*
G04 #@! TF.CreationDate,2024-04-14T00:11:39+01:00*
G04 #@! TF.ProjectId,RJ21_RJ45_PRIMARY_BREAKOUT_BASE,524a3231-5f52-44a3-9435-5f5052494d41,rev?*
G04 #@! TF.SameCoordinates,Original*
G04 #@! TF.FileFunction,Legend,Top*
G04 #@! TF.FilePolarity,Positive*
%FSLAX46Y46*%
G04 Gerber Fmt 4.6, Leading zero omitted, Abs format (unit mm)*
G04 Created by KiCad (PCBNEW (6.0.11)) date 2024-04-14 00:11:39*
%MOMM*%
%LPD*%
G01*
G04 APERTURE LIST*
%ADD10C,0.749999*%
%ADD11C,0.250000*%
%ADD12C,0.500000*%
%ADD13C,0.300000*%
%ADD14C,3.200000*%
G04 APERTURE END LIST*
D10*
X96485899Y-111538510D02*
X96485899Y-93704411D01*
X96485899Y-111538510D02*
X96485899Y-111538510D01*
D11*
G36*
X111137520Y-105721241D02*
G01*
X109935822Y-105721241D01*
X109935822Y-104989164D01*
X109901776Y-105037437D01*
X109866398Y-105084415D01*
X109829690Y-105130098D01*
X109791651Y-105174486D01*
X109752281Y-105217579D01*
X109711580Y-105259378D01*
X109669548Y-105299881D01*
X109626185Y-105339089D01*
X109581491Y-105377002D01*
X109535467Y-105413621D01*
X109488111Y-105448944D01*
X109439425Y-105482972D01*
X109389407Y-105515706D01*
X109338059Y-105547144D01*
X109285380Y-105577288D01*
X109231370Y-105606136D01*
X109177071Y-105633456D01*
X109122378Y-105659014D01*
X109067288Y-105682809D01*
X109011803Y-105704842D01*
X108955923Y-105725112D01*
X108899647Y-105743619D01*
X108842975Y-105760364D01*
X108785907Y-105775347D01*
X108728444Y-105788567D01*
X108670586Y-105800024D01*
X108612332Y-105809719D01*
X108553682Y-105817651D01*
X108494636Y-105823821D01*
X108435195Y-105828227D01*
X108375358Y-105830872D01*
X108315125Y-105831753D01*
X108253939Y-105830908D01*
X108193544Y-105828372D01*
X108133940Y-105824145D01*
X108075128Y-105818227D01*
X108017107Y-105810619D01*
X107959878Y-105801321D01*
X107903440Y-105790331D01*
X107847793Y-105777651D01*
X107792938Y-105763280D01*
X107738874Y-105747219D01*
X107685601Y-105729466D01*
X107633120Y-105710024D01*
X107581430Y-105688890D01*
X107530531Y-105666066D01*
X107480423Y-105641551D01*
X107431107Y-105615345D01*
X107383033Y-105587611D01*
X107336650Y-105558510D01*
X107291957Y-105528042D01*
X107248955Y-105496208D01*
X107207643Y-105463007D01*
X107168022Y-105428439D01*
X107130091Y-105392505D01*
X107093851Y-105355203D01*
X107059301Y-105316535D01*
X107026442Y-105276500D01*
X106995274Y-105235099D01*
X106965797Y-105192330D01*
X106938010Y-105148195D01*
X106911913Y-105102693D01*
X106887508Y-105055824D01*
X106864793Y-105007589D01*
X106843606Y-104957499D01*
X106823787Y-104905071D01*
X106805334Y-104850306D01*
X106788249Y-104793202D01*
X106772530Y-104733760D01*
X106758178Y-104671981D01*
X106745193Y-104607863D01*
X106733575Y-104541407D01*
X106723323Y-104472613D01*
X106714439Y-104401481D01*
X106706921Y-104328011D01*
X106700770Y-104252202D01*
X106695986Y-104174056D01*
X106692569Y-104093571D01*
X106690519Y-104010749D01*
X106689835Y-103925588D01*
X106689835Y-100831545D01*
X107983628Y-100831545D01*
X107983628Y-103078412D01*
X107984707Y-103323802D01*
X107987944Y-103544301D01*
X107993339Y-103739909D01*
X108000891Y-103910626D01*
X108010602Y-104056451D01*
X108022471Y-104177385D01*
X108036497Y-104273428D01*
X108052682Y-104344579D01*
X108062341Y-104372995D01*
X108072899Y-104400693D01*
X108084356Y-104427670D01*
X108096713Y-104453929D01*
X108109968Y-104479468D01*
X108124123Y-104504287D01*
X108139177Y-104528388D01*
X108155130Y-104551768D01*
X108171982Y-104574430D01*
X108189734Y-104596372D01*
X108208384Y-104617595D01*
X108227934Y-104638098D01*
X108248383Y-104657882D01*
X108269731Y-104676947D01*
X108291979Y-104695292D01*
X108315125Y-104712918D01*
X108339118Y-104729088D01*
X108363903Y-104744214D01*
X108389478Y-104758298D01*
X108415845Y-104771338D01*
X108443003Y-104783334D01*
X108470952Y-104794288D01*
X108499692Y-104804198D01*
X108529223Y-104813066D01*
X108559546Y-104820890D01*
X108590660Y-104827670D01*
X108622565Y-104833408D01*
X108655261Y-104838102D01*
X108688749Y-104841754D01*
X108723029Y-104844362D01*
X108758099Y-104845927D01*
X108793961Y-104846448D01*
X108835130Y-104845747D01*
X108875760Y-104843642D01*
X108915850Y-104840135D01*
X108955400Y-104835224D01*
X108994411Y-104828911D01*
X109032882Y-104821195D01*
X109070813Y-104812076D01*
X109108205Y-104801554D01*
X109145056Y-104789629D01*
X109181369Y-104776301D01*
X109217141Y-104761571D01*
X109252374Y-104745437D01*
X109287068Y-104727901D01*
X109321221Y-104708962D01*
X109354835Y-104688620D01*
X109387910Y-104666875D01*
X109420068Y-104643530D01*
X109450931Y-104619538D01*
X109480500Y-104594898D01*
X109508773Y-104569610D01*
X109535752Y-104543675D01*
X109561435Y-104517093D01*
X109585824Y-104489863D01*
X109608917Y-104461986D01*
X109630715Y-104433461D01*
X109651218Y-104404289D01*
X109670427Y-104374469D01*
X109688340Y-104344001D01*
X109704957Y-104312887D01*
X109720280Y-104281124D01*
X109734308Y-104248715D01*
X109747040Y-104215657D01*
X109758749Y-104178661D01*
X109769702Y-104135585D01*
X109779900Y-104086430D01*
X109789342Y-104031197D01*
X109798029Y-103969885D01*
X109805960Y-103902494D01*
X109813136Y-103829024D01*
X109819557Y-103749475D01*
X109830132Y-103572140D01*
X109837685Y-103370489D01*
X109842217Y-103144522D01*
X109843728Y-102894239D01*
X109843728Y-100831541D01*
X111137520Y-100831541D01*
X111137520Y-105721241D01*
G37*
X111137520Y-105721241D02*
X109935822Y-105721241D01*
X109935822Y-104989164D01*
X109901776Y-105037437D01*
X109866398Y-105084415D01*
X109829690Y-105130098D01*
X109791651Y-105174486D01*
X109752281Y-105217579D01*
X109711580Y-105259378D01*
X109669548Y-105299881D01*
X109626185Y-105339089D01*
X109581491Y-105377002D01*
X109535467Y-105413621D01*
X109488111Y-105448944D01*
X109439425Y-105482972D01*
X109389407Y-105515706D01*
X109338059Y-105547144D01*
X109285380Y-105577288D01*
X109231370Y-105606136D01*
X109177071Y-105633456D01*
X109122378Y-105659014D01*
X109067288Y-105682809D01*
X109011803Y-105704842D01*
X108955923Y-105725112D01*
X108899647Y-105743619D01*
X108842975Y-105760364D01*
X108785907Y-105775347D01*
X108728444Y-105788567D01*
X108670586Y-105800024D01*
X108612332Y-105809719D01*
X108553682Y-105817651D01*
X108494636Y-105823821D01*
X108435195Y-105828227D01*
X108375358Y-105830872D01*
X108315125Y-105831753D01*
X108253939Y-105830908D01*
X108193544Y-105828372D01*
X108133940Y-105824145D01*
X108075128Y-105818227D01*
X108017107Y-105810619D01*
X107959878Y-105801321D01*
X107903440Y-105790331D01*
X107847793Y-105777651D01*
X107792938Y-105763280D01*
X107738874Y-105747219D01*
X107685601Y-105729466D01*
X107633120Y-105710024D01*
X107581430Y-105688890D01*
X107530531Y-105666066D01*
X107480423Y-105641551D01*
X107431107Y-105615345D01*
X107383033Y-105587611D01*
X107336650Y-105558510D01*
X107291957Y-105528042D01*
X107248955Y-105496208D01*
X107207643Y-105463007D01*
X107168022Y-105428439D01*
X107130091Y-105392505D01*
X107093851Y-105355203D01*
X107059301Y-105316535D01*
X107026442Y-105276500D01*
X106995274Y-105235099D01*
X106965797Y-105192330D01*
X106938010Y-105148195D01*
X106911913Y-105102693D01*
X106887508Y-105055824D01*
X106864793Y-105007589D01*
X106843606Y-104957499D01*
X106823787Y-104905071D01*
X106805334Y-104850306D01*
X106788249Y-104793202D01*
X106772530Y-104733760D01*
X106758178Y-104671981D01*
X106745193Y-104607863D01*
X106733575Y-104541407D01*
X106723323Y-104472613D01*
X106714439Y-104401481D01*
X106706921Y-104328011D01*
X106700770Y-104252202D01*
X106695986Y-104174056D01*
X106692569Y-104093571D01*
X106690519Y-104010749D01*
X106689835Y-103925588D01*
X106689835Y-100831545D01*
X107983628Y-100831545D01*
X107983628Y-103078412D01*
X107984707Y-103323802D01*
X107987944Y-103544301D01*
X107993339Y-103739909D01*
X108000891Y-103910626D01*
X108010602Y-104056451D01*
X108022471Y-104177385D01*
X108036497Y-104273428D01*
X108052682Y-104344579D01*
X108062341Y-104372995D01*
X108072899Y-104400693D01*
X108084356Y-104427670D01*
X108096713Y-104453929D01*
X108109968Y-104479468D01*
X108124123Y-104504287D01*
X108139177Y-104528388D01*
X108155130Y-104551768D01*
X108171982Y-104574430D01*
X108189734Y-104596372D01*
X108208384Y-104617595D01*
X108227934Y-104638098D01*
X108248383Y-104657882D01*
X108269731Y-104676947D01*
X108291979Y-104695292D01*
X108315125Y-104712918D01*
X108339118Y-104729088D01*
X108363903Y-104744214D01*
X108389478Y-104758298D01*
X108415845Y-104771338D01*
X108443003Y-104783334D01*
X108470952Y-104794288D01*
X108499692Y-104804198D01*
X108529223Y-104813066D01*
X108559546Y-104820890D01*
X108590660Y-104827670D01*
X108622565Y-104833408D01*
X108655261Y-104838102D01*
X108688749Y-104841754D01*
X108723029Y-104844362D01*
X108758099Y-104845927D01*
X108793961Y-104846448D01*
X108835130Y-104845747D01*
X108875760Y-104843642D01*
X108915850Y-104840135D01*
X108955400Y-104835224D01*
X108994411Y-104828911D01*
X109032882Y-104821195D01*
X109070813Y-104812076D01*
X109108205Y-104801554D01*
X109145056Y-104789629D01*
X109181369Y-104776301D01*
X109217141Y-104761571D01*
X109252374Y-104745437D01*
X109287068Y-104727901D01*
X109321221Y-104708962D01*
X109354835Y-104688620D01*
X109387910Y-104666875D01*
X109420068Y-104643530D01*
X109450931Y-104619538D01*
X109480500Y-104594898D01*
X109508773Y-104569610D01*
X109535752Y-104543675D01*
X109561435Y-104517093D01*
X109585824Y-104489863D01*
X109608917Y-104461986D01*
X109630715Y-104433461D01*
X109651218Y-104404289D01*
X109670427Y-104374469D01*
X109688340Y-104344001D01*
X109704957Y-104312887D01*
X109720280Y-104281124D01*
X109734308Y-104248715D01*
X109747040Y-104215657D01*
X109758749Y-104178661D01*
X109769702Y-104135585D01*
X109779900Y-104086430D01*
X109789342Y-104031197D01*
X109798029Y-103969885D01*
X109805960Y-103902494D01*
X109813136Y-103829024D01*
X109819557Y-103749475D01*
X109830132Y-103572140D01*
X109837685Y-103370489D01*
X109842217Y-103144522D01*
X109843728Y-102894239D01*
X109843728Y-100831541D01*
X111137520Y-100831541D01*
X111137520Y-105721241D01*
D10*
X114320000Y-93704411D02*
X114320000Y-93704411D01*
X114320000Y-111538510D02*
X96485899Y-111538510D01*
X114320000Y-93704411D02*
X114320000Y-111538510D01*
D11*
G36*
X102989084Y-98859177D02*
G01*
X103138451Y-98867756D01*
X103284186Y-98882054D01*
X103426288Y-98902072D01*
X103564757Y-98927809D01*
X103699592Y-98959265D01*
X103830795Y-98996441D01*
X103958365Y-99039335D01*
X104082302Y-99087950D01*
X104202606Y-99142283D01*
X104319277Y-99202336D01*
X104432315Y-99268109D01*
X104541720Y-99339600D01*
X104647492Y-99416812D01*
X104749631Y-99499742D01*
X104848138Y-99588392D01*
X104904791Y-99643967D01*
X104959645Y-99702491D01*
X105012701Y-99763965D01*
X105063959Y-99828389D01*
X105113418Y-99895762D01*
X105161078Y-99966084D01*
X105206940Y-100039357D01*
X105251004Y-100115579D01*
X105293269Y-100194750D01*
X105333735Y-100276872D01*
X105372403Y-100361943D01*
X105409273Y-100449963D01*
X105444344Y-100540933D01*
X105477616Y-100634853D01*
X105509090Y-100731722D01*
X105538766Y-100831541D01*
X104189728Y-101153837D01*
X104173741Y-101089090D01*
X104155704Y-101026069D01*
X104135615Y-100964774D01*
X104113477Y-100905206D01*
X104089287Y-100847365D01*
X104063047Y-100791251D01*
X104034756Y-100736863D01*
X104004415Y-100684202D01*
X103972023Y-100633268D01*
X103937581Y-100584060D01*
X103901088Y-100536579D01*
X103862545Y-100490824D01*
X103821951Y-100446796D01*
X103779307Y-100404495D01*
X103734612Y-100363920D01*
X103687867Y-100325072D01*
X103640025Y-100288273D01*
X103590889Y-100253850D01*
X103540458Y-100221800D01*
X103488731Y-100192124D01*
X103435710Y-100164822D01*
X103381394Y-100139895D01*
X103325783Y-100117341D01*
X103268877Y-100097162D01*
X103210676Y-100079357D01*
X103151180Y-100063925D01*
X103090390Y-100050868D01*
X103028304Y-100040185D01*
X102964924Y-100031876D01*
X102900249Y-100025941D01*
X102834279Y-100022380D01*
X102767014Y-100021193D01*
X102674300Y-100023297D01*
X102583780Y-100029610D01*
X102495454Y-100040131D01*
X102409322Y-100054861D01*
X102325384Y-100073799D01*
X102243641Y-100096946D01*
X102164092Y-100124301D01*
X102086737Y-100155865D01*
X102011577Y-100191637D01*
X101938610Y-100231618D01*
X101867838Y-100275808D01*
X101799260Y-100324206D01*
X101732877Y-100376813D01*
X101668687Y-100433628D01*
X101606692Y-100494652D01*
X101546891Y-100559885D01*
X101490579Y-100629830D01*
X101437900Y-100704991D01*
X101388853Y-100785367D01*
X101343441Y-100870959D01*
X101301661Y-100961767D01*
X101263514Y-101057791D01*
X101229000Y-101159030D01*
X101198120Y-101265485D01*
X101170872Y-101377156D01*
X101147258Y-101494042D01*
X101127276Y-101616145D01*
X101110928Y-101743462D01*
X101098212Y-101875996D01*
X101089130Y-102013746D01*
X101083681Y-102156711D01*
X101081864Y-102304892D01*
X101083663Y-102462011D01*
X101089058Y-102613375D01*
X101098051Y-102758984D01*
X101110640Y-102898838D01*
X101126827Y-103032936D01*
X101146611Y-103161280D01*
X101169992Y-103283868D01*
X101196970Y-103400701D01*
X101227545Y-103511778D01*
X101261717Y-103617101D01*
X101299486Y-103716668D01*
X101340853Y-103810479D01*
X101385816Y-103898535D01*
X101434377Y-103980836D01*
X101486535Y-104057381D01*
X101542290Y-104128171D01*
X101600922Y-104193961D01*
X101661712Y-104255506D01*
X101724660Y-104312807D01*
X101789767Y-104365863D01*
X101857032Y-104414675D01*
X101926456Y-104459243D01*
X101998037Y-104499565D01*
X102071777Y-104535644D01*
X102147675Y-104567478D01*
X102225731Y-104595067D01*
X102305946Y-104618412D01*
X102388318Y-104637512D01*
X102472849Y-104652368D01*
X102559537Y-104662979D01*
X102648384Y-104669346D01*
X102739388Y-104671468D01*
X102806708Y-104670119D01*
X102872841Y-104666072D01*
X102937787Y-104659328D01*
X103001545Y-104649886D01*
X103064117Y-104637746D01*
X103125501Y-104622908D01*
X103185698Y-104605373D01*
X103244708Y-104585139D01*
X103302531Y-104562208D01*
X103359166Y-104536580D01*
X103414615Y-104508253D01*
X103468876Y-104477229D01*
X103521950Y-104443507D01*
X103573837Y-104407087D01*
X103624537Y-104367969D01*
X103674050Y-104326154D01*
X103722107Y-104281442D01*
X103768438Y-104233636D01*
X103813042Y-104182737D01*
X103855920Y-104128745D01*
X103897070Y-104071659D01*
X103936495Y-104011480D01*
X103974192Y-103948208D01*
X104010163Y-103881842D01*
X104044407Y-103812383D01*
X104076925Y-103739830D01*
X104107716Y-103664184D01*
X104136780Y-103585445D01*
X104164118Y-103503612D01*
X104189729Y-103418686D01*
X104213614Y-103330666D01*
X104235772Y-103239553D01*
X105557191Y-103658536D01*
X105517622Y-103794451D01*
X105474889Y-103925942D01*
X105428990Y-104053008D01*
X105379926Y-104175650D01*
X105327696Y-104293868D01*
X105272302Y-104407661D01*
X105213742Y-104517030D01*
X105152016Y-104621974D01*
X105087126Y-104722494D01*
X105019070Y-104818590D01*
X104947848Y-104910261D01*
X104873461Y-104997508D01*
X104795909Y-105080330D01*
X104715191Y-105158728D01*
X104631308Y-105232702D01*
X104544259Y-105302251D01*
X104454709Y-105366926D01*
X104362175Y-105427429D01*
X104266654Y-105483759D01*
X104168149Y-105535916D01*
X104066657Y-105583901D01*
X103962180Y-105627713D01*
X103854718Y-105667352D01*
X103744270Y-105702818D01*
X103630836Y-105734112D01*
X103514417Y-105761233D01*
X103395013Y-105784182D01*
X103272622Y-105802958D01*
X103147247Y-105817562D01*
X103018885Y-105827993D01*
X102887538Y-105834252D01*
X102753205Y-105836338D01*
X102587020Y-105832759D01*
X102424577Y-105822022D01*
X102265874Y-105804127D01*
X102110912Y-105779073D01*
X101959692Y-105746862D01*
X101812212Y-105707492D01*
X101668473Y-105660965D01*
X101528475Y-105607279D01*
X101392219Y-105546435D01*
X101259703Y-105478433D01*
X101130928Y-105403273D01*
X101005894Y-105320955D01*
X100884601Y-105231479D01*
X100767049Y-105134845D01*
X100653238Y-105031053D01*
X100543168Y-104920102D01*
X100438349Y-104802369D01*
X100340294Y-104679384D01*
X100249000Y-104551148D01*
X100164470Y-104417661D01*
X100086702Y-104278922D01*
X100015696Y-104134931D01*
X99951453Y-103985689D01*
X99893972Y-103831195D01*
X99843254Y-103671450D01*
X99799298Y-103506453D01*
X99762105Y-103336205D01*
X99731674Y-103160704D01*
X99708006Y-102979953D01*
X99691100Y-102793949D01*
X99680956Y-102602694D01*
X99677575Y-102406187D01*
X99680974Y-102198493D01*
X99691172Y-101996697D01*
X99708168Y-101800801D01*
X99731963Y-101610804D01*
X99762556Y-101426707D01*
X99799948Y-101248508D01*
X99844138Y-101076209D01*
X99895126Y-100909809D01*
X99952913Y-100749308D01*
X100017498Y-100594706D01*
X100088882Y-100446004D01*
X100167064Y-100303201D01*
X100252044Y-100166297D01*
X100343823Y-100035292D01*
X100442400Y-99910186D01*
X100547776Y-99790980D01*
X100658691Y-99677798D01*
X100773886Y-99571919D01*
X100893363Y-99473342D01*
X101017119Y-99382067D01*
X101145157Y-99298093D01*
X101277475Y-99221422D01*
X101414073Y-99152052D01*
X101554952Y-99089985D01*
X101700112Y-99035219D01*
X101849552Y-98987756D01*
X102003273Y-98947594D01*
X102161274Y-98914735D01*
X102323555Y-98889177D01*
X102490118Y-98870922D01*
X102660960Y-98859969D01*
X102836083Y-98856318D01*
X102989084Y-98859177D01*
G37*
X102989084Y-98859177D02*
X103138451Y-98867756D01*
X103284186Y-98882054D01*
X103426288Y-98902072D01*
X103564757Y-98927809D01*
X103699592Y-98959265D01*
X103830795Y-98996441D01*
X103958365Y-99039335D01*
X104082302Y-99087950D01*
X104202606Y-99142283D01*
X104319277Y-99202336D01*
X104432315Y-99268109D01*
X104541720Y-99339600D01*
X104647492Y-99416812D01*
X104749631Y-99499742D01*
X104848138Y-99588392D01*
X104904791Y-99643967D01*
X104959645Y-99702491D01*
X105012701Y-99763965D01*
X105063959Y-99828389D01*
X105113418Y-99895762D01*
X105161078Y-99966084D01*
X105206940Y-100039357D01*
X105251004Y-100115579D01*
X105293269Y-100194750D01*
X105333735Y-100276872D01*
X105372403Y-100361943D01*
X105409273Y-100449963D01*
X105444344Y-100540933D01*
X105477616Y-100634853D01*
X105509090Y-100731722D01*
X105538766Y-100831541D01*
X104189728Y-101153837D01*
X104173741Y-101089090D01*
X104155704Y-101026069D01*
X104135615Y-100964774D01*
X104113477Y-100905206D01*
X104089287Y-100847365D01*
X104063047Y-100791251D01*
X104034756Y-100736863D01*
X104004415Y-100684202D01*
X103972023Y-100633268D01*
X103937581Y-100584060D01*
X103901088Y-100536579D01*
X103862545Y-100490824D01*
X103821951Y-100446796D01*
X103779307Y-100404495D01*
X103734612Y-100363920D01*
X103687867Y-100325072D01*
X103640025Y-100288273D01*
X103590889Y-100253850D01*
X103540458Y-100221800D01*
X103488731Y-100192124D01*
X103435710Y-100164822D01*
X103381394Y-100139895D01*
X103325783Y-100117341D01*
X103268877Y-100097162D01*
X103210676Y-100079357D01*
X103151180Y-100063925D01*
X103090390Y-100050868D01*
X103028304Y-100040185D01*
X102964924Y-100031876D01*
X102900249Y-100025941D01*
X102834279Y-100022380D01*
X102767014Y-100021193D01*
X102674300Y-100023297D01*
X102583780Y-100029610D01*
X102495454Y-100040131D01*
X102409322Y-100054861D01*
X102325384Y-100073799D01*
X102243641Y-100096946D01*
X102164092Y-100124301D01*
X102086737Y-100155865D01*
X102011577Y-100191637D01*
X101938610Y-100231618D01*
X101867838Y-100275808D01*
X101799260Y-100324206D01*
X101732877Y-100376813D01*
X101668687Y-100433628D01*
X101606692Y-100494652D01*
X101546891Y-100559885D01*
X101490579Y-100629830D01*
X101437900Y-100704991D01*
X101388853Y-100785367D01*
X101343441Y-100870959D01*
X101301661Y-100961767D01*
X101263514Y-101057791D01*
X101229000Y-101159030D01*
X101198120Y-101265485D01*
X101170872Y-101377156D01*
X101147258Y-101494042D01*
X101127276Y-101616145D01*
X101110928Y-101743462D01*
X101098212Y-101875996D01*
X101089130Y-102013746D01*
X101083681Y-102156711D01*
X101081864Y-102304892D01*
X101083663Y-102462011D01*
X101089058Y-102613375D01*
X101098051Y-102758984D01*
X101110640Y-102898838D01*
X101126827Y-103032936D01*
X101146611Y-103161280D01*
X101169992Y-103283868D01*
X101196970Y-103400701D01*
X101227545Y-103511778D01*
X101261717Y-103617101D01*
X101299486Y-103716668D01*
X101340853Y-103810479D01*
X101385816Y-103898535D01*
X101434377Y-103980836D01*
X101486535Y-104057381D01*
X101542290Y-104128171D01*
X101600922Y-104193961D01*
X101661712Y-104255506D01*
X101724660Y-104312807D01*
X101789767Y-104365863D01*
X101857032Y-104414675D01*
X101926456Y-104459243D01*
X101998037Y-104499565D01*
X102071777Y-104535644D01*
X102147675Y-104567478D01*
X102225731Y-104595067D01*
X102305946Y-104618412D01*
X102388318Y-104637512D01*
X102472849Y-104652368D01*
X102559537Y-104662979D01*
X102648384Y-104669346D01*
X102739388Y-104671468D01*
X102806708Y-104670119D01*
X102872841Y-104666072D01*
X102937787Y-104659328D01*
X103001545Y-104649886D01*
X103064117Y-104637746D01*
X103125501Y-104622908D01*
X103185698Y-104605373D01*
X103244708Y-104585139D01*
X103302531Y-104562208D01*
X103359166Y-104536580D01*
X103414615Y-104508253D01*
X103468876Y-104477229D01*
X103521950Y-104443507D01*
X103573837Y-104407087D01*
X103624537Y-104367969D01*
X103674050Y-104326154D01*
X103722107Y-104281442D01*
X103768438Y-104233636D01*
X103813042Y-104182737D01*
X103855920Y-104128745D01*
X103897070Y-104071659D01*
X103936495Y-104011480D01*
X103974192Y-103948208D01*
X104010163Y-103881842D01*
X104044407Y-103812383D01*
X104076925Y-103739830D01*
X104107716Y-103664184D01*
X104136780Y-103585445D01*
X104164118Y-103503612D01*
X104189729Y-103418686D01*
X104213614Y-103330666D01*
X104235772Y-103239553D01*
X105557191Y-103658536D01*
X105517622Y-103794451D01*
X105474889Y-103925942D01*
X105428990Y-104053008D01*
X105379926Y-104175650D01*
X105327696Y-104293868D01*
X105272302Y-104407661D01*
X105213742Y-104517030D01*
X105152016Y-104621974D01*
X105087126Y-104722494D01*
X105019070Y-104818590D01*
X104947848Y-104910261D01*
X104873461Y-104997508D01*
X104795909Y-105080330D01*
X104715191Y-105158728D01*
X104631308Y-105232702D01*
X104544259Y-105302251D01*
X104454709Y-105366926D01*
X104362175Y-105427429D01*
X104266654Y-105483759D01*
X104168149Y-105535916D01*
X104066657Y-105583901D01*
X103962180Y-105627713D01*
X103854718Y-105667352D01*
X103744270Y-105702818D01*
X103630836Y-105734112D01*
X103514417Y-105761233D01*
X103395013Y-105784182D01*
X103272622Y-105802958D01*
X103147247Y-105817562D01*
X103018885Y-105827993D01*
X102887538Y-105834252D01*
X102753205Y-105836338D01*
X102587020Y-105832759D01*
X102424577Y-105822022D01*
X102265874Y-105804127D01*
X102110912Y-105779073D01*
X101959692Y-105746862D01*
X101812212Y-105707492D01*
X101668473Y-105660965D01*
X101528475Y-105607279D01*
X101392219Y-105546435D01*
X101259703Y-105478433D01*
X101130928Y-105403273D01*
X101005894Y-105320955D01*
X100884601Y-105231479D01*
X100767049Y-105134845D01*
X100653238Y-105031053D01*
X100543168Y-104920102D01*
X100438349Y-104802369D01*
X100340294Y-104679384D01*
X100249000Y-104551148D01*
X100164470Y-104417661D01*
X100086702Y-104278922D01*
X100015696Y-104134931D01*
X99951453Y-103985689D01*
X99893972Y-103831195D01*
X99843254Y-103671450D01*
X99799298Y-103506453D01*
X99762105Y-103336205D01*
X99731674Y-103160704D01*
X99708006Y-102979953D01*
X99691100Y-102793949D01*
X99680956Y-102602694D01*
X99677575Y-102406187D01*
X99680974Y-102198493D01*
X99691172Y-101996697D01*
X99708168Y-101800801D01*
X99731963Y-101610804D01*
X99762556Y-101426707D01*
X99799948Y-101248508D01*
X99844138Y-101076209D01*
X99895126Y-100909809D01*
X99952913Y-100749308D01*
X100017498Y-100594706D01*
X100088882Y-100446004D01*
X100167064Y-100303201D01*
X100252044Y-100166297D01*
X100343823Y-100035292D01*
X100442400Y-99910186D01*
X100547776Y-99790980D01*
X100658691Y-99677798D01*
X100773886Y-99571919D01*
X100893363Y-99473342D01*
X101017119Y-99382067D01*
X101145157Y-99298093D01*
X101277475Y-99221422D01*
X101414073Y-99152052D01*
X101554952Y-99089985D01*
X101700112Y-99035219D01*
X101849552Y-98987756D01*
X102003273Y-98947594D01*
X102161274Y-98914735D01*
X102323555Y-98889177D01*
X102490118Y-98870922D01*
X102660960Y-98859969D01*
X102836083Y-98856318D01*
X102989084Y-98859177D01*
D10*
X96485899Y-93704411D02*
X114320000Y-93704411D01*
X114320000Y-111538510D02*
X114320000Y-111538510D01*
D12*
X78974377Y-116320349D02*
X78307710Y-115367968D01*
X77831520Y-116320349D02*
X77831520Y-114320349D01*
X78593425Y-114320349D01*
X78783901Y-114415588D01*
X78879139Y-114510826D01*
X78974377Y-114701302D01*
X78974377Y-114987016D01*
X78879139Y-115177492D01*
X78783901Y-115272730D01*
X78593425Y-115367968D01*
X77831520Y-115367968D01*
X80402949Y-114320349D02*
X80402949Y-115748921D01*
X80307710Y-116034635D01*
X80117234Y-116225111D01*
X79831520Y-116320349D01*
X79641044Y-116320349D01*
X81260091Y-114510826D02*
X81355329Y-114415588D01*
X81545806Y-114320349D01*
X82021996Y-114320349D01*
X82212472Y-114415588D01*
X82307710Y-114510826D01*
X82402949Y-114701302D01*
X82402949Y-114891778D01*
X82307710Y-115177492D01*
X81164853Y-116320349D01*
X82402949Y-116320349D01*
X84307710Y-116320349D02*
X83164853Y-116320349D01*
X83736282Y-116320349D02*
X83736282Y-114320349D01*
X83545806Y-114606064D01*
X83355329Y-114796540D01*
X83164853Y-114891778D01*
X84688663Y-116510826D02*
X86212472Y-116510826D01*
X87831520Y-116320349D02*
X87164853Y-115367968D01*
X86688663Y-116320349D02*
X86688663Y-114320349D01*
X87450568Y-114320349D01*
X87641044Y-114415588D01*
X87736282Y-114510826D01*
X87831520Y-114701302D01*
X87831520Y-114987016D01*
X87736282Y-115177492D01*
X87641044Y-115272730D01*
X87450568Y-115367968D01*
X86688663Y-115367968D01*
X89260091Y-114320349D02*
X89260091Y-115748921D01*
X89164853Y-116034635D01*
X88974377Y-116225111D01*
X88688663Y-116320349D01*
X88498187Y-116320349D01*
X91069615Y-114987016D02*
X91069615Y-116320349D01*
X90593425Y-114225111D02*
X90117234Y-115653683D01*
X91355329Y-115653683D01*
X93069615Y-114320349D02*
X92117234Y-114320349D01*
X92021996Y-115272730D01*
X92117234Y-115177492D01*
X92307710Y-115082254D01*
X92783901Y-115082254D01*
X92974377Y-115177492D01*
X93069615Y-115272730D01*
X93164853Y-115463207D01*
X93164853Y-115939397D01*
X93069615Y-116129873D01*
X92974377Y-116225111D01*
X92783901Y-116320349D01*
X92307710Y-116320349D01*
X92117234Y-116225111D01*
X92021996Y-116129873D01*
X93545806Y-116510826D02*
X95069615Y-116510826D01*
X95545806Y-116320349D02*
X95545806Y-114320349D01*
X96307710Y-114320349D01*
X96498187Y-114415588D01*
X96593425Y-114510826D01*
X96688663Y-114701302D01*
X96688663Y-114987016D01*
X96593425Y-115177492D01*
X96498187Y-115272730D01*
X96307710Y-115367968D01*
X95545806Y-115367968D01*
X98688663Y-116320349D02*
X98021996Y-115367968D01*
X97545806Y-116320349D02*
X97545806Y-114320349D01*
X98307710Y-114320349D01*
X98498187Y-114415588D01*
X98593425Y-114510826D01*
X98688663Y-114701302D01*
X98688663Y-114987016D01*
X98593425Y-115177492D01*
X98498187Y-115272730D01*
X98307710Y-115367968D01*
X97545806Y-115367968D01*
X99545806Y-116320349D02*
X99545806Y-114320349D01*
X100498187Y-116320349D02*
X100498187Y-114320349D01*
X101164853Y-115748921D01*
X101831520Y-114320349D01*
X101831520Y-116320349D01*
X102688663Y-115748921D02*
X103641044Y-115748921D01*
X102498187Y-116320349D02*
X103164853Y-114320349D01*
X103831520Y-116320349D01*
X105641044Y-116320349D02*
X104974377Y-115367968D01*
X104498187Y-116320349D02*
X104498187Y-114320349D01*
X105260091Y-114320349D01*
X105450568Y-114415588D01*
X105545806Y-114510826D01*
X105641044Y-114701302D01*
X105641044Y-114987016D01*
X105545806Y-115177492D01*
X105450568Y-115272730D01*
X105260091Y-115367968D01*
X104498187Y-115367968D01*
X106879139Y-115367968D02*
X106879139Y-116320349D01*
X106212472Y-114320349D02*
X106879139Y-115367968D01*
X107545806Y-114320349D01*
X107736282Y-116510826D02*
X109260091Y-116510826D01*
X110402949Y-115272730D02*
X110688663Y-115367968D01*
X110783901Y-115463207D01*
X110879139Y-115653683D01*
X110879139Y-115939397D01*
X110783901Y-116129873D01*
X110688663Y-116225111D01*
X110498187Y-116320349D01*
X109736282Y-116320349D01*
X109736282Y-114320349D01*
X110402949Y-114320349D01*
X110593425Y-114415588D01*
X110688663Y-114510826D01*
X110783901Y-114701302D01*
X110783901Y-114891778D01*
X110688663Y-115082254D01*
X110593425Y-115177492D01*
X110402949Y-115272730D01*
X109736282Y-115272730D01*
X112879139Y-116320349D02*
X112212472Y-115367968D01*
X111736282Y-116320349D02*
X111736282Y-114320349D01*
X112498187Y-114320349D01*
X112688663Y-114415588D01*
X112783901Y-114510826D01*
X112879139Y-114701302D01*
X112879139Y-114987016D01*
X112783901Y-115177492D01*
X112688663Y-115272730D01*
X112498187Y-115367968D01*
X111736282Y-115367968D01*
X113736282Y-115272730D02*
X114402949Y-115272730D01*
X114688663Y-116320349D02*
X113736282Y-116320349D01*
X113736282Y-114320349D01*
X114688663Y-114320349D01*
X115450568Y-115748921D02*
X116402949Y-115748921D01*
X115260091Y-116320349D02*
X115926758Y-114320349D01*
X116593425Y-116320349D01*
X117260091Y-116320349D02*
X117260091Y-114320349D01*
X118402949Y-116320349D02*
X117545806Y-115177492D01*
X118402949Y-114320349D02*
X117260091Y-115463207D01*
X119641044Y-114320349D02*
X120021996Y-114320349D01*
X120212472Y-114415588D01*
X120402949Y-114606064D01*
X120498187Y-114987016D01*
X120498187Y-115653683D01*
X120402949Y-116034635D01*
X120212472Y-116225111D01*
X120021996Y-116320349D01*
X119641044Y-116320349D01*
X119450568Y-116225111D01*
X119260091Y-116034635D01*
X119164853Y-115653683D01*
X119164853Y-114987016D01*
X119260091Y-114606064D01*
X119450568Y-114415588D01*
X119641044Y-114320349D01*
X121355329Y-114320349D02*
X121355329Y-115939397D01*
X121450568Y-116129873D01*
X121545806Y-116225111D01*
X121736282Y-116320349D01*
X122117234Y-116320349D01*
X122307710Y-116225111D01*
X122402949Y-116129873D01*
X122498187Y-115939397D01*
X122498187Y-114320349D01*
X123164853Y-114320349D02*
X124307710Y-114320349D01*
X123736282Y-116320349D02*
X123736282Y-114320349D01*
X124498187Y-116510826D02*
X126021996Y-116510826D01*
X127164853Y-115272730D02*
X127450568Y-115367968D01*
X127545806Y-115463207D01*
X127641044Y-115653683D01*
X127641044Y-115939397D01*
X127545806Y-116129873D01*
X127450568Y-116225111D01*
X127260091Y-116320349D01*
X126498187Y-116320349D01*
X126498187Y-114320349D01*
X127164853Y-114320349D01*
X127355329Y-114415588D01*
X127450568Y-114510826D01*
X127545806Y-114701302D01*
X127545806Y-114891778D01*
X127450568Y-115082254D01*
X127355329Y-115177492D01*
X127164853Y-115272730D01*
X126498187Y-115272730D01*
X128402949Y-115748921D02*
X129355329Y-115748921D01*
X128212472Y-116320349D02*
X128879139Y-114320349D01*
X129545806Y-116320349D01*
X130117234Y-116225111D02*
X130402949Y-116320349D01*
X130879139Y-116320349D01*
X131069615Y-116225111D01*
X131164853Y-116129873D01*
X131260091Y-115939397D01*
X131260091Y-115748921D01*
X131164853Y-115558445D01*
X131069615Y-115463207D01*
X130879139Y-115367968D01*
X130498187Y-115272730D01*
X130307710Y-115177492D01*
X130212472Y-115082254D01*
X130117234Y-114891778D01*
X130117234Y-114701302D01*
X130212472Y-114510826D01*
X130307710Y-114415588D01*
X130498187Y-114320349D01*
X130974377Y-114320349D01*
X131260091Y-114415588D01*
X132117234Y-115272730D02*
X132783901Y-115272730D01*
X133069615Y-116320349D02*
X132117234Y-116320349D01*
X132117234Y-114320349D01*
X133069615Y-114320349D01*
X102355329Y-117540349D02*
X103021996Y-119540349D01*
X103688663Y-117540349D01*
X104736282Y-117540349D02*
X104926758Y-117540349D01*
X105117234Y-117635588D01*
X105212472Y-117730826D01*
X105307710Y-117921302D01*
X105402949Y-118302254D01*
X105402949Y-118778445D01*
X105307710Y-119159397D01*
X105212472Y-119349873D01*
X105117234Y-119445111D01*
X104926758Y-119540349D01*
X104736282Y-119540349D01*
X104545806Y-119445111D01*
X104450568Y-119349873D01*
X104355329Y-119159397D01*
X104260091Y-118778445D01*
X104260091Y-118302254D01*
X104355329Y-117921302D01*
X104450568Y-117730826D01*
X104545806Y-117635588D01*
X104736282Y-117540349D01*
X106260091Y-119349873D02*
X106355329Y-119445111D01*
X106260091Y-119540349D01*
X106164853Y-119445111D01*
X106260091Y-119349873D01*
X106260091Y-119540349D01*
X107117234Y-117730826D02*
X107212472Y-117635588D01*
X107402949Y-117540349D01*
X107879139Y-117540349D01*
X108069615Y-117635588D01*
X108164853Y-117730826D01*
X108260091Y-117921302D01*
X108260091Y-118111778D01*
X108164853Y-118397492D01*
X107021996Y-119540349D01*
X108260091Y-119540349D01*
D13*
X96071428Y-69878571D02*
X96071428Y-70950000D01*
X96000000Y-71164285D01*
X95857142Y-71307142D01*
X95642857Y-71378571D01*
X95500000Y-71378571D01*
X97500000Y-71378571D02*
X96785714Y-71378571D01*
X96785714Y-69878571D01*
X98857142Y-71235714D02*
X98785714Y-71307142D01*
X98571428Y-71378571D01*
X98428571Y-71378571D01*
X98214285Y-71307142D01*
X98071428Y-71164285D01*
X98000000Y-71021428D01*
X97928571Y-70735714D01*
X97928571Y-70521428D01*
X98000000Y-70235714D01*
X98071428Y-70092857D01*
X98214285Y-69950000D01*
X98428571Y-69878571D01*
X98571428Y-69878571D01*
X98785714Y-69950000D01*
X98857142Y-70021428D01*
X99928571Y-69878571D02*
X99928571Y-70950000D01*
X99857142Y-71164285D01*
X99714285Y-71307142D01*
X99500000Y-71378571D01*
X99357142Y-71378571D01*
X101357142Y-71378571D02*
X100642857Y-71378571D01*
X100642857Y-69878571D01*
X102714285Y-71235714D02*
X102642857Y-71307142D01*
X102428571Y-71378571D01*
X102285714Y-71378571D01*
X102071428Y-71307142D01*
X101928571Y-71164285D01*
X101857142Y-71021428D01*
X101785714Y-70735714D01*
X101785714Y-70521428D01*
X101857142Y-70235714D01*
X101928571Y-70092857D01*
X102071428Y-69950000D01*
X102285714Y-69878571D01*
X102428571Y-69878571D01*
X102642857Y-69950000D01*
X102714285Y-70021428D01*
X103785714Y-69878571D02*
X103785714Y-70950000D01*
X103714285Y-71164285D01*
X103571428Y-71307142D01*
X103357142Y-71378571D01*
X103214285Y-71378571D01*
X105214285Y-71378571D02*
X104500000Y-71378571D01*
X104500000Y-69878571D01*
X106571428Y-71235714D02*
X106500000Y-71307142D01*
X106285714Y-71378571D01*
X106142857Y-71378571D01*
X105928571Y-71307142D01*
X105785714Y-71164285D01*
X105714285Y-71021428D01*
X105642857Y-70735714D01*
X105642857Y-70521428D01*
X105714285Y-70235714D01*
X105785714Y-70092857D01*
X105928571Y-69950000D01*
X106142857Y-69878571D01*
X106285714Y-69878571D01*
X106500000Y-69950000D01*
X106571428Y-70021428D01*
X107642857Y-69878571D02*
X107642857Y-70950000D01*
X107571428Y-71164285D01*
X107428571Y-71307142D01*
X107214285Y-71378571D01*
X107071428Y-71378571D01*
X109071428Y-71378571D02*
X108357142Y-71378571D01*
X108357142Y-69878571D01*
X110428571Y-71235714D02*
X110357142Y-71307142D01*
X110142857Y-71378571D01*
X110000000Y-71378571D01*
X109785714Y-71307142D01*
X109642857Y-71164285D01*
X109571428Y-71021428D01*
X109500000Y-70735714D01*
X109500000Y-70521428D01*
X109571428Y-70235714D01*
X109642857Y-70092857D01*
X109785714Y-69950000D01*
X110000000Y-69878571D01*
X110142857Y-69878571D01*
X110357142Y-69950000D01*
X110428571Y-70021428D01*
%LPC*%
D14*
X53000000Y-157100000D03*
X153000000Y-157100000D03*
X153000000Y-57100000D03*
X53000000Y-57100000D03*
M02*
