%TF.GenerationSoftware,KiCad,Pcbnew,(6.0.11)*%
%TF.CreationDate,2024-04-14T00:11:42+01:00*%
%TF.ProjectId,RJ21_RJ45_PRIMARY_BREAKOUT_BASE,524a3231-5f52-44a3-9435-5f5052494d41,rev?*%
%TF.SameCoordinates,Original*%
%TF.FileFunction,Drillmap*%
%TF.FilePolarity,Positive*%
%FSLAX45Y45*%
G04 Gerber Fmt 4.5, Leading zero omitted, Abs format (unit mm)*
G04 Created by KiCad (PCBNEW (6.0.11)) date 2024-04-14 00:11:42*
%MOMM*%
%LPD*%
G01*
G04 APERTURE LIST*
%ADD10C,0.150000*%
%ADD11C,0.500000*%
%ADD12C,0.200000*%
G04 APERTURE END LIST*
D10*
X11850000Y-6860000D02*
G75*
G03*
X11850000Y-6360000I0J250000D01*
G01*
X8850000Y-6360000D02*
G75*
G03*
X8850000Y-6860000I0J-250000D01*
G01*
X8850000Y-6860000D02*
X11850000Y-6860000D01*
X8850000Y-6360000D02*
X11850000Y-6360000D01*
D11*
X16300000Y-5710000D02*
G75*
G03*
X15300000Y-4710000I-1000000J0D01*
G01*
X15300000Y-16710000D02*
G75*
G03*
X16300000Y-15710000I0J1000000D01*
G01*
X4300000Y-15710000D02*
G75*
G03*
X5300000Y-16710000I1000000J0D01*
G01*
X5300000Y-4710000D02*
G75*
G03*
X4300000Y-5710000I0J-1000000D01*
G01*
X5300000Y-4710000D02*
X15300000Y-4710000D01*
X4300000Y-5710000D02*
X4300000Y-15710000D01*
X15300000Y-16710000D02*
X5300000Y-16710000D01*
X16300000Y-5710000D02*
X16300000Y-15710000D01*
D12*
X4532619Y-17045476D02*
X4532619Y-16845476D01*
X4580238Y-16845476D01*
X4608810Y-16855000D01*
X4627857Y-16874048D01*
X4637381Y-16893095D01*
X4646905Y-16931190D01*
X4646905Y-16959762D01*
X4637381Y-16997857D01*
X4627857Y-17016905D01*
X4608810Y-17035952D01*
X4580238Y-17045476D01*
X4532619Y-17045476D01*
X4732619Y-17045476D02*
X4732619Y-16912143D01*
X4732619Y-16950238D02*
X4742143Y-16931190D01*
X4751667Y-16921667D01*
X4770714Y-16912143D01*
X4789762Y-16912143D01*
X4856429Y-17045476D02*
X4856429Y-16912143D01*
X4856429Y-16845476D02*
X4846905Y-16855000D01*
X4856429Y-16864524D01*
X4865952Y-16855000D01*
X4856429Y-16845476D01*
X4856429Y-16864524D01*
X4980238Y-17045476D02*
X4961190Y-17035952D01*
X4951667Y-17016905D01*
X4951667Y-16845476D01*
X5085000Y-17045476D02*
X5065952Y-17035952D01*
X5056429Y-17016905D01*
X5056429Y-16845476D01*
X5313571Y-17045476D02*
X5313571Y-16845476D01*
X5380238Y-16988333D01*
X5446905Y-16845476D01*
X5446905Y-17045476D01*
X5627857Y-17045476D02*
X5627857Y-16940714D01*
X5618333Y-16921667D01*
X5599286Y-16912143D01*
X5561190Y-16912143D01*
X5542143Y-16921667D01*
X5627857Y-17035952D02*
X5608809Y-17045476D01*
X5561190Y-17045476D01*
X5542143Y-17035952D01*
X5532619Y-17016905D01*
X5532619Y-16997857D01*
X5542143Y-16978810D01*
X5561190Y-16969286D01*
X5608809Y-16969286D01*
X5627857Y-16959762D01*
X5723095Y-16912143D02*
X5723095Y-17112143D01*
X5723095Y-16921667D02*
X5742143Y-16912143D01*
X5780238Y-16912143D01*
X5799286Y-16921667D01*
X5808809Y-16931190D01*
X5818333Y-16950238D01*
X5818333Y-17007381D01*
X5808809Y-17026429D01*
X5799286Y-17035952D01*
X5780238Y-17045476D01*
X5742143Y-17045476D01*
X5723095Y-17035952D01*
X5904048Y-17026429D02*
X5913571Y-17035952D01*
X5904048Y-17045476D01*
X5894524Y-17035952D01*
X5904048Y-17026429D01*
X5904048Y-17045476D01*
X5904048Y-16921667D02*
X5913571Y-16931190D01*
X5904048Y-16940714D01*
X5894524Y-16931190D01*
X5904048Y-16921667D01*
X5904048Y-16940714D01*
M02*
